# xmcd
#
# Track frame offsets: 
#        150
#        18680
#        41742
#        64790
#
# Disc length: 1170 seconds
#
# Revision: 0
# Processed by: cddbd v1.4PL0 Copyright (c) Steve Scherf et al.
# Submitted via: ExactAudioCopy v0.95a3
#
DISCID=32049004
DTITLE=Total Commitment - Silver Bells
DYEAR=1997
DGENRE=Soul
TTITLE0=Silver Bells (Radio Edit)
TTITLE1=Silver Bells (LP Version)
TTITLE2=Silver Bells (Instrumental)
TTITLE3=Silver Bells (A Capella)
EXTD=
EXTT0=
EXTT1=
EXTT2=
EXTT3=
PLAYORDER=
